<svg width="1200" height="900" viewBox="0 0 1200 900" fill="none" xmlns="http://www.w3.org/2000/svg">
  <rect width="1200" height="900" rx="48" fill="#F7F7F5"/>
  <rect x="58" y="58" width="1084" height="784" rx="38" fill="#FFFFFF" stroke="#111111" stroke-opacity="0.08"/>
  <rect x="108" y="130" width="412" height="604" rx="28" fill="#FAFAF8" stroke="#111111" stroke-opacity="0.1"/>
  <rect x="142" y="172" width="344" height="56" rx="16" fill="#111111"/>
  <rect x="166" y="193" width="96" height="14" rx="7" fill="#FFFFFF"/>
  <rect x="276" y="193" width="120" height="14" rx="7" fill="#6E6E6E"/>
  <rect x="142" y="262" width="344" height="178" rx="22" fill="#F0F0EC" stroke="#111111" stroke-opacity="0.1"/>
  <path d="M184 384C220 337 266 311 321 307C379 302 415 337 443 365" stroke="#111111" stroke-width="10" stroke-linecap="round"/>
  <circle cx="187" cy="385" r="14" fill="#111111"/>
  <circle cx="323" cy="307" r="14" fill="#111111"/>
  <circle cx="443" cy="365" r="14" fill="#111111"/>
  <rect x="142" y="468" width="162" height="220" rx="20" fill="#F4F3EF" stroke="#111111" stroke-opacity="0.1"/>
  <rect x="324" y="468" width="162" height="220" rx="20" fill="#F4F3EF" stroke="#111111" stroke-opacity="0.1"/>
  <rect x="170" y="505" width="104" height="14" rx="7" fill="#111111"/>
  <rect x="170" y="534" width="82" height="10" rx="5" fill="#6F6F6F"/>
  <rect x="170" y="554" width="94" height="10" rx="5" fill="#A2A2A2"/>
  <rect x="352" y="505" width="104" height="14" rx="7" fill="#111111"/>
  <rect x="352" y="534" width="82" height="10" rx="5" fill="#6F6F6F"/>
  <rect x="352" y="554" width="94" height="10" rx="5" fill="#A2A2A2"/>
  <rect x="574" y="166" width="518" height="230" rx="28" fill="#F2F1ED" stroke="#111111" stroke-opacity="0.1"/>
  <rect x="614" y="214" width="202" height="136" rx="20" fill="#FFFFFF" stroke="#111111" stroke-opacity="0.12"/>
  <rect x="842" y="214" width="208" height="136" rx="20" fill="#111111"/>
  <rect x="635" y="240" width="86" height="12" rx="6" fill="#111111"/>
  <rect x="635" y="264" width="126" height="10" rx="5" fill="#767676"/>
  <rect x="635" y="284" width="112" height="10" rx="5" fill="#A7A7A7"/>
  <rect x="878" y="248" width="67" height="16" rx="8" fill="#FFFFFF"/>
  <rect x="878" y="278" width="134" height="12" rx="6" fill="#8A8A8A"/>
  <rect x="878" y="302" width="102" height="12" rx="6" fill="#595959"/>
  <rect x="574" y="428" width="518" height="306" rx="28" fill="#FAFAF8" stroke="#111111" stroke-opacity="0.1"/>
  <rect x="612" y="470" width="170" height="104" rx="18" fill="#ECEAE5" stroke="#111111" stroke-opacity="0.1"/>
  <rect x="812" y="470" width="242" height="182" rx="22" fill="#F3F1EC" stroke="#111111" stroke-opacity="0.1"/>
  <rect x="846" y="500" width="172" height="24" rx="12" fill="#111111"/>
  <rect x="846" y="543" width="134" height="12" rx="6" fill="#666666"/>
  <rect x="846" y="565" width="144" height="12" rx="6" fill="#A5A5A5"/>
  <path d="M634 561H760" stroke="#111111" stroke-width="7" stroke-linecap="round"/>
  <path d="M634 531H716" stroke="#6F6F6F" stroke-width="7" stroke-linecap="round"/>
  <path d="M634 501H684" stroke="#A5A5A5" stroke-width="7" stroke-linecap="round"/>
  <rect x="635" y="640" width="196" height="46" rx="23" fill="#111111"/>
  <rect x="658" y="656" width="94" height="14" rx="7" fill="#FFFFFF"/>
  <circle cx="1014" cy="731" r="74" fill="#EFEDE8"/>
  <path d="M973 731H1056" stroke="#111111" stroke-width="10" stroke-linecap="round"/>
  <path d="M1014 691V772" stroke="#111111" stroke-width="10" stroke-linecap="round"/>
  <path d="M921 731C921 679.638 962.638 638 1014 638" stroke="#111111" stroke-opacity="0.16" stroke-width="6"/>
  <path d="M1014 824C1065.36 824 1107 782.362 1107 731" stroke="#111111" stroke-opacity="0.16" stroke-width="6"/>
</svg>
